# xmcd CD database file
#
# Track frame offsets:
#	183
#	14490
#	31748
#	51528
#	66975
#	98575
#	123793
#	141810
#	155043
#	169565
#	191345
#	207640
#
# Disc length: 2990 seconds
#
# Revision: 0
# Processed by: cddbd v1.5.2PL0 Copyright (c) Steve Scherf et al.
# Submitted via: CDex 1.51
#
DISCID=a50bac0c
DTITLE=Sunnyland Bluesband - Dangerous Love
DYEAR=1993
DGENRE=Blues
TTITLE0=Dangerous Love
TTITLE1=My Woman
TTITLE2=Whiskey Drinking Fool
TTITLE3=Boppin' (Like A Cork)
TTITLE4=A Time To Think Again
TTITLE5=Can't Tame That Demon
TTITLE6=I Would Like To Stay
TTITLE7=Midnight Train
TTITLE8=Lady Don't Cry
TTITLE9=Me And My Shadow
TTITLE10=Sweet Home Chicago
TTITLE11=Lousiana Sunset
EXTD=YEAR: 1993
EXTT0=
EXTT1=
EXTT2=
EXTT3=
EXTT4=
EXTT5=
EXTT6=
EXTT7=
EXTT8=
EXTT9=
EXTT10=
EXTT11=
PLAYORDER=
